# xmcd
#
# Track frame offsets:
#	182
#	15370
#	27572
#	39250
#	50872
#	61420
#	74787
#	86965
#	102760
#	117570
#	131982
#	145112
#	159580
#
# Disc length: 2311
#
# Revision: 1
# Processed by: cddbd v1.5.1PL0 Copyright (c) Steve Scherf et al.
# Submitted via: OrangeCD 5.2
# Normalized: r0:DSETVAR1
#
DISCID=c209050d
DTITLE=Various Artist - 13 Great Country Stars
DYEAR=1900
DGENRE=Country
TTITLE0=Don Williams - I Recall a Gypsy Woman
TTITLE1=Tanya Tucker - I'm Knee Deep in Loving You
TTITLE2=Joe Stampley - The Most Beautiful Girl
TTITLE3=Loretta Lynn - Sweet Dreams
TTITLE4=Waylon Jennings - Burning Memories
TTITLE5=Merle Haggard - (Remember Me) I/m The One Who Loves You
TTITLE6=Patsy Cline - Always
TTITLE7=George Hamilton IV - Forever Young
TTITLE8=Barbara Mandrell - I Believe You
TTITLE9=Marty Robbins - I'm Wanting To
TTITLE10=Crystal Gayle - Too Far
TTITLE11=The Oakridge Boys - Dream On
TTITLE12=Conway Twitty - We Had It All
EXTD=
EXTT0=
EXTT1=
EXTT2=
EXTT3=
EXTT4=
EXTT5=
EXTT6=
EXTT7=
EXTT8=
EXTT9=
EXTT10=
EXTT11=
EXTT12=
PLAYORDER=
